<svg xmlns="http://www.w3.org/2000/svg" width="122" height="66" viewBox="0 0 122 66" fill="none">
<g clip-path="url(#clip0_1067_95)">
<path fill-rule="evenodd" clip-rule="evenodd" d="M0.199951 0.200195H1.69995H101.4H102.024L102.463 0.642383L121.063 19.3424L121.5 19.7812V20.4002V64.0002V65.5002H120H20.4H19.7786L19.3393 65.0609L0.639291 46.3609L0.199951 45.9215V45.3002V1.7002V0.200195ZM3.19995 5.32152V44.6789L18.8999 60.3788V21.0215L3.19995 5.32152ZM5.32127 3.2002L21.0213 18.9002H116.392L100.776 3.2002H5.32127ZM118.5 62.5002H21.8999V21.9002H118.5V62.5002Z" fill="#eef0ff"/>
<path d="M46.2 46.4998C46.2 49.7998 44.1 52.5998 38.8 52.5998C36.5 52.5998 34.7 52.0998 33 51.3998V46.8998C34.7 47.7998 36.8 48.2998 38.7 48.2998C40.4 48.2998 41.3 47.7998 41.3 46.7998C41.3 43.7998 33 44.6998 33 38.4998C33 34.6998 36.1 32.2998 40.3 32.2998C42.1 32.2998 43.7 32.6998 45.4 33.6998V38.4998C43.1 37.0998 41.5 36.5998 40.2 36.5998C38.6 36.5998 37.8 37.1998 37.8 38.0998C37.7 40.9998 46.2 39.8998 46.2 46.4998Z" fill="#eef0ff"/>
<path d="M79.3 32.8002L73 52.2002H68.2L64 38.8002L59.7 52.1002H54.9L48.6 32.7002H54L57.5 45.7002L61.6 32.7002H66.4L70.5 45.7002L74 32.7002H79.3V32.8002Z" fill="#eef0ff"/>
<path d="M109.4 39.3998V52.1998H104.6V40.1998C104.6 38.0998 103.1 36.8998 101.5 36.8998C99.8 36.8998 98.4 38.0998 98.4 40.1998V52.1998H93.6V40.1998C93.6 38.0998 92.1 36.8998 90.5 36.8998C88.8 36.8998 87.4 38.0998 87.4 40.1998V52.1998H82.6V32.7998H87.1V34.1998C88.5 32.7998 90 32.2998 91.8 32.2998C93.8 32.2998 95.6 33.1998 96.8 34.7998C98.4 33.0998 100.4 32.2998 102.7 32.2998C106.6 32.3998 109.4 35.1998 109.4 39.3998Z" fill="#eef0ff"/>
</g>
<defs fill="#eef0ff">
<clipPath id="clip0_1067_95" fill="#eef0ff">
<rect width="122" height="66" fill="#eef0ff"/>
</clipPath>
</defs>
</svg>