<?xml version="1.0" standalone="no"?>
<!DOCTYPE svg PUBLIC "-//W3C//DTD SVG 20010904//EN"
 "http://www.w3.org/TR/2001/REC-SVG-20010904/DTD/svg10.dtd">
<svg version="1.0" xmlns="http://www.w3.org/2000/svg"
 width="480.000000pt" height="480.000000pt" viewBox="0 0 480.000000 480.000000"
 preserveAspectRatio="xMidYMid meet">

<g transform="translate(0.000000,480.000000) scale(0.100000,-0.100000)"
fill="#3e61d7" stroke="none">
<path d="M0 2400 l0 -2400 2400 0 2400 0 0 2400 0 2400 -2400 0 -2400 0 0
-2400z m2660 1450 c516 -105 924 -524 1015 -1044 12 -74 15 -202 15 -787 l0
-699 -290 0 -290 0 -2 -187 -3 -188 -198 -3 -197 -2 2 387 3 388 288 0 287 0
0 492 c0 538 -2 561 -60 710 -42 109 -93 192 -171 276 -272 296 -718 378
-1074 199 -106 -53 -172 -102 -256 -188 -111 -116 -188 -256 -226 -411 -22
-94 -22 -295 2 -386 76 -296 285 -534 559 -633 l61 -22 3 -406 2 -406 -197 2
-198 3 -5 277 -5 277 -72 48 c-279 185 -486 498 -549 831 -24 127 -21 339 5
470 78 378 335 712 681 887 144 72 286 116 440 135 110 13 313 4 430 -20z"/>
</g>
</svg>
